<svg width="31.000000" height="27.000000" viewBox="0 0 31 27" fill="none" xmlns="http://www.w3.org/2000/svg" xmlns:xlink="http://www.w3.org/1999/xlink">
	<desc>
			Created with Pixso.
	</desc>
	<defs/>
	<g opacity="0.300000">
		<path id="Forma 1" d="M27.5 3.93L21.25 3.93L21.25 2.62C21.26 1.94 21.01 1.28 20.54 0.79C20.07 0.3 19.42 0.01 18.75 0L11.25 0C10.57 0.01 9.92 0.3 9.45 0.79C8.99 1.28 8.73 1.94 8.75 2.62L8.75 3.93L2.5 3.93C1.82 3.95 1.17 4.24 0.7 4.73C0.24 5.22 -0.02 5.88 0 6.56L0 10.5C-0.02 11.17 0.24 11.83 0.7 12.32C1.17 12.82 1.82 13.1 2.5 13.12L12.5 13.12L12.5 12.46C12.49 12.37 12.51 12.29 12.54 12.21C12.57 12.13 12.61 12.06 12.67 12C12.73 11.94 12.8 11.89 12.88 11.86C12.95 11.83 13.04 11.81 13.12 11.81L16.87 11.81C16.95 11.81 17.04 11.83 17.11 11.86C17.19 11.89 17.26 11.94 17.32 12C17.38 12.06 17.42 12.13 17.45 12.21C17.48 12.29 17.5 12.37 17.5 12.46L17.5 13.12L27.5 13.12C28.17 13.1 28.82 12.82 29.29 12.32C29.76 11.83 30.01 11.17 30 10.5L30 6.56C30.01 5.88 29.76 5.22 29.29 4.73C28.82 4.24 28.17 3.95 27.5 3.93ZM18.75 3.93L11.25 3.93L11.25 2.62L18.75 2.62L18.75 3.93ZM29.65 13.83C29.54 13.78 29.43 13.75 29.31 13.77C29.2 13.78 29.09 13.82 29 13.9C28.57 14.24 28.04 14.43 27.5 14.43L17.5 14.43L17.5 16.4C17.5 16.48 17.48 16.56 17.45 16.64C17.42 16.72 17.38 16.79 17.32 16.86C17.26 16.92 17.19 16.97 17.12 17C17.04 17.04 16.96 17.06 16.87 17.06L13.12 17.06C13.04 17.06 12.95 17.04 12.88 17C12.8 16.97 12.73 16.92 12.67 16.86C12.61 16.79 12.57 16.72 12.54 16.64C12.51 16.56 12.49 16.48 12.5 16.4L12.5 14.43L2.5 14.43C1.95 14.43 1.42 14.24 1 13.9C0.91 13.82 0.8 13.78 0.68 13.77C0.56 13.75 0.45 13.78 0.35 13.83C0.24 13.89 0.15 13.97 0.09 14.08C0.03 14.18 -0.01 14.3 0 14.42L0 23.62C-0.02 24.3 0.24 24.96 0.7 25.45C1.17 25.94 1.82 26.23 2.5 26.25L27.5 26.25C28.17 26.23 28.82 25.94 29.29 25.45C29.76 24.96 30.01 24.3 30 23.62L30 14.42C30 14.3 29.97 14.18 29.9 14.08C29.84 13.97 29.75 13.89 29.65 13.83Z" fill="#FFFFFF" fill-opacity="1.000000" fill-rule="evenodd"/>
	</g>
</svg>
