<svg width="123.000000" height="24.000000" viewBox="0 0 123 24" fill="none" xmlns="http://www.w3.org/2000/svg" xmlns:xlink="http://www.w3.org/1999/xlink">
	<desc>
			Created with Pixso.
	</desc>
	<defs>
		<clipPath id="clip1_10">
			<rect id="Dropbox_logo_2017" width="123.000000" height="24.000000" fill="white" fill-opacity="0"/>
		</clipPath>
	</defs>
	<rect id="Dropbox_logo_2017" width="123.000000" height="24.000000" fill="#FFFFFF" fill-opacity="0"/>
	<g clip-path="url(#clip1_10)">
		<path id="Vector" d="M14.26 4.51L7.13 9.01L14.26 13.52L7.13 18.03L0 13.5L7.13 8.99L0 4.51L7.13 0L14.26 4.51ZM7.09 19.49L14.23 14.98L21.36 19.49L14.23 24L7.09 19.49ZM14.26 13.5L21.4 8.99L14.26 4.51L21.36 0L28.49 4.51L21.36 9.01L28.49 13.52L21.36 18.03L14.26 13.5Z" fill="#B7BEC9" fill-opacity="1.000000" fill-rule="nonzero"/>
		<path id="Vector" d="M34.09 4.51L39.86 4.51C43.54 4.51 46.58 6.61 46.58 11.43L46.58 12.44C46.58 17.29 43.73 19.47 39.97 19.47L34.09 19.47L34.09 4.51ZM37.31 7.22L37.31 16.74L39.79 16.74C41.88 16.74 43.28 15.39 43.28 12.38L43.28 11.59C43.28 8.58 41.8 7.22 39.67 7.22L37.31 7.22ZM48.28 7.37L50.87 7.37L51.29 10.18C51.78 8.27 53.03 7.25 55.31 7.25L56.11 7.25L56.11 10.48L54.78 10.48C52.16 10.48 51.52 11.38 51.52 13.94L51.52 19.51L48.33 19.51L48.33 7.37L48.28 7.37ZM56.75 13.68L56.75 13.34C56.75 9.28 59.37 7.06 62.93 7.06C66.57 7.06 69.12 9.28 69.12 13.34L69.12 13.68C69.12 17.67 66.65 19.81 62.93 19.81C58.99 19.78 56.75 17.68 56.75 13.68ZM65.86 13.65L65.86 13.34C65.86 11.09 64.72 9.73 62.9 9.73C61.11 9.73 59.93 10.98 59.93 13.34L59.93 13.65C59.93 15.83 61.08 17.07 62.9 17.07C64.72 17.04 65.86 15.83 65.86 13.65ZM70.79 7.37L73.45 7.37L73.76 9.66C74.4 8.13 75.76 7.06 77.78 7.06C80.89 7.06 82.95 9.28 82.95 13.39L82.95 13.73C82.95 17.72 80.67 19.83 77.78 19.83C75.85 19.83 74.52 18.96 73.87 17.57L73.87 23.7L70.76 23.7L70.79 7.37ZM79.71 13.65L79.71 13.38C79.71 10.97 78.46 9.77 76.78 9.77C75 9.77 73.82 11.12 73.82 13.38L73.82 13.61C73.82 15.76 74.96 17.11 76.75 17.11C78.58 17.07 79.71 15.91 79.71 13.65ZM87.66 17.27L87.39 19.49L84.66 19.49L84.66 3.31L87.77 3.31L87.77 9.51C88.46 7.93 89.82 7.06 91.75 7.06C94.68 7.1 96.85 9.1 96.85 13.12L96.85 13.5C96.85 17.52 94.79 19.83 91.68 19.83C89.63 19.78 88.3 18.84 87.66 17.27ZM93.57 13.5L93.57 13.2C93.57 10.98 92.36 9.73 90.65 9.73C88.9 9.73 87.68 11.12 87.68 13.23L87.68 13.5C87.68 15.76 88.86 17.07 90.61 17.07C92.48 17.07 93.57 15.91 93.57 13.5ZM98.21 13.68L98.21 13.34C98.21 9.28 100.83 7.06 104.4 7.06C108.04 7.06 110.58 9.28 110.58 13.34L110.58 13.68C110.58 17.67 108.08 19.81 104.4 19.81C100.45 19.78 98.21 17.68 98.21 13.68ZM107.35 13.65L107.35 13.34C107.35 11.09 106.21 9.73 104.39 9.73C102.6 9.73 101.42 10.98 101.42 13.34L101.42 13.65C101.42 15.83 102.57 17.07 104.39 17.07C106.22 17.04 107.35 15.83 107.35 13.65ZM114.75 13.2L110.46 7.37L114.14 7.37L116.61 11.01L119.12 7.37L122.76 7.37L118.41 13.16L123 19.49L119.39 19.49L116.59 15.46L113.86 19.49L110.09 19.49L114.75 13.2Z" fill="#B7BEC9" fill-opacity="1.000000" fill-rule="nonzero"/>
	</g>
</svg>
