<svg width="30.000000" height="30.000000" viewBox="0 0 30 30" fill="none" xmlns="http://www.w3.org/2000/svg" xmlns:xlink="http://www.w3.org/1999/xlink">
	<desc>
			Created with Pixso.
	</desc>
	<defs/>
	<path id="Forma 1" d="M15 0C12.03 0 9.13 0.87 6.66 2.52C4.19 4.17 2.27 6.51 1.14 9.25C0 12 -0.3 15.01 0.28 17.92C0.86 20.83 2.29 23.5 4.39 25.6C6.49 27.7 9.16 29.13 12.07 29.71C14.98 30.29 17.99 29.99 20.74 28.85C23.48 27.72 25.82 25.8 27.47 23.33C29.12 20.86 30 17.96 30 15C30 11.02 28.41 7.2 25.6 4.39C22.79 1.58 18.97 0 15 0ZM19.09 20.78C18.24 21.66 17.1 22.18 15.89 22.25L15.89 24.37L14.11 24.37L14.11 22.25C13.03 22.19 12.01 21.75 11.23 21.01C10.44 20.27 9.93 19.28 9.8 18.21L12.54 17.5C12.55 17.81 12.63 18.13 12.76 18.42C12.89 18.71 13.08 18.97 13.32 19.19C13.55 19.4 13.83 19.57 14.13 19.68C14.43 19.78 14.75 19.83 15.07 19.81C15.34 19.83 15.61 19.8 15.86 19.72C16.12 19.63 16.35 19.49 16.55 19.31C16.7 19.15 16.82 18.96 16.9 18.76C16.98 18.55 17.02 18.33 17.02 18.11C17.03 17.9 17 17.69 16.91 17.5C16.83 17.31 16.71 17.14 16.55 17.01C15.89 16.61 15.18 16.29 14.45 16.07C13.65 15.81 12.88 15.47 12.16 15.05C11.6 14.72 11.14 14.24 10.82 13.67C10.47 13.03 10.29 12.31 10.31 11.58C10.3 10.57 10.62 9.59 11.23 8.78C11.58 8.34 12.02 7.98 12.51 7.72C13.01 7.45 13.55 7.3 14.11 7.25L14.11 5.62L15.89 5.62L15.89 7.25C16.81 7.33 17.68 7.7 18.37 8.3C19.07 8.91 19.55 9.72 19.75 10.62L17.3 11.62C17.21 11.08 16.95 10.59 16.55 10.22C16.15 9.84 15.63 9.61 15.09 9.57C14.87 9.56 14.65 9.59 14.44 9.67C14.23 9.75 14.04 9.87 13.88 10.02C13.73 10.17 13.62 10.35 13.54 10.54C13.46 10.74 13.42 10.94 13.43 11.15C13.42 11.35 13.45 11.54 13.53 11.72C13.6 11.9 13.72 12.05 13.86 12.18C14.45 12.56 15.08 12.85 15.74 13.07C16.6 13.35 17.43 13.72 18.23 14.15C18.82 14.49 19.32 14.98 19.66 15.57C20.03 16.21 20.21 16.94 20.2 17.68C20.24 18.82 19.84 19.93 19.09 20.78Z" fill="#FFC059" fill-opacity="1.000000" fill-rule="evenodd"/>
</svg>
