<svg width="40.000000" height="45.000000" viewBox="0 0 40 45" fill="none" xmlns="http://www.w3.org/2000/svg" xmlns:xlink="http://www.w3.org/1999/xlink">
	<desc>
			Created with Pixso.
	</desc>
	<defs>
		<radialGradient id="paint_radial_1_239_0" cx="0.000000" cy="0.000000" r="1.000000" gradientUnits="userSpaceOnUse" gradientTransform="translate(15.2637 13.588) rotate(0) scale(31.3448 31.3448)">
			<stop stop-color="#F7E135"/>
			<stop offset="0.500000" stop-color="#FCBC27"/>
			<stop offset="1.000000" stop-color="#FF7E2C"/>
		</radialGradient>
		<radialGradient id="paint_radial_1_240_0" cx="0.000000" cy="0.000000" r="1.000000" gradientUnits="userSpaceOnUse" gradientTransform="translate(2.05403 -4.36307) rotate(0) scale(34.7264 34.7264)">
			<stop stop-color="#FFFFFF"/>
			<stop offset="1.000000" stop-color="#000000"/>
		</radialGradient>
		<radialGradient id="paint_radial_1_242_0" cx="0.000000" cy="0.000000" r="1.000000" gradientUnits="userSpaceOnUse" gradientTransform="translate(20.0042 31.9477) rotate(0) scale(6.54982 6.54982)">
			<stop stop-color="#372396"/>
			<stop offset="1.000000" stop-color="#000000"/>
		</radialGradient>
		<linearGradient id="paint_linear_1_246_0" x1="8.893667" y1="20.469200" x2="16.395327" y2="20.469200" gradientUnits="userSpaceOnUse">
			<stop stop-color="#372396"/>
			<stop offset="1.000000" stop-color="#000000"/>
		</linearGradient>
		<linearGradient id="paint_linear_1_249_0" x1="23.613985" y1="20.469200" x2="31.115658" y2="20.469200" gradientUnits="userSpaceOnUse">
			<stop stop-color="#000000"/>
			<stop offset="1.000000" stop-color="#372396"/>
		</linearGradient>
		<radialGradient id="paint_radial_1_250_0" cx="0.000000" cy="0.000000" r="1.000000" gradientUnits="userSpaceOnUse" gradientTransform="translate(20.0647 8.03936) rotate(0) scale(12.1044 8.24498)">
			<stop stop-color="#09F5CF"/>
			<stop offset="1.000000" stop-color="#00D9FF"/>
		</radialGradient>
	</defs>
	<path id="Vector" d="M40 24.04C40 35.09 31.04 44.04 20 44.04C8.95 44.04 0 35.09 0 24.04C0 12.99 8.95 4.04 20 4.04C31.04 4.04 40 12.99 40 24.04Z" fill="url(#paint_radial_1_239_0)" fill-opacity="1.000000" fill-rule="evenodd"/>
	<path id="Vector" d="M19.9 5.51C9.65 5.51 1.33 13.83 1.33 24.09C1.33 28.35 2.77 32.28 5.19 35.4C3.61 32.68 2.72 29.52 2.72 26.15C2.72 15.89 11.04 7.58 21.3 7.58C27.3 7.58 32.62 10.42 36.01 14.83C32.8 9.27 26.8 5.51 19.9 5.51Z" fill="url(#paint_radial_1_240_0)" fill-opacity="1.000000" fill-rule="nonzero"/>
	<path id="Vector" d="M19.99 34.43C16.73 34.43 13.65 33.17 11.32 30.88C10.99 30.55 10.99 30.02 11.31 29.7C11.64 29.37 12.17 29.36 12.49 29.69C14.5 31.67 17.18 32.76 19.99 32.76C22.82 32.76 25.49 31.67 27.49 29.69C27.82 29.36 28.35 29.37 28.68 29.7C29 30.02 28.99 30.55 28.67 30.88C26.35 33.17 23.27 34.43 19.99 34.43Z" fill="url(#paint_radial_1_242_0)" fill-opacity="1.000000" fill-rule="nonzero"/>
	<path id="Vector" d="M15.56 21.95C15.35 21.95 15.13 21.87 14.97 21.7C14.27 21 13.46 20.64 12.64 20.64C11.81 20.64 11.01 21 10.31 21.7C9.99 22.03 9.46 22.03 9.13 21.7C8.8 21.38 8.8 20.85 9.13 20.52C10.15 19.51 11.36 18.98 12.64 18.98C13.91 18.98 15.12 19.51 16.15 20.52C16.48 20.85 16.48 21.38 16.15 21.7C15.99 21.87 15.77 21.95 15.56 21.95Z" fill="url(#paint_linear_1_246_0)" fill-opacity="1.000000" fill-rule="nonzero"/>
	<path id="Vector" d="M24.44 21.95C24.22 21.95 24.01 21.87 23.85 21.7C23.52 21.38 23.52 20.85 23.85 20.52C24.87 19.51 26.08 18.98 27.36 18.98C28.63 18.98 29.84 19.51 30.87 20.52C31.2 20.85 31.2 21.38 30.87 21.7C30.54 22.03 30.01 22.03 29.69 21.7C28.99 21 28.18 20.64 27.36 20.64C26.53 20.64 25.73 21 25.03 21.7C24.87 21.87 24.66 21.95 24.44 21.95Z" fill="url(#paint_linear_1_249_0)" fill-opacity="1.000000" fill-rule="nonzero"/>
	<path id="Vector" d="M19.99 0C11.65 0 2.66 1.24 2.66 4C2.66 6.75 11.65 8 19.99 8C28.33 8 37.34 6.75 37.34 4C37.34 1.24 28.35 0 19.99 0ZM31.07 5.45C28.12 6.03 24.19 6.35 19.99 6.35C15.8 6.35 11.86 6.04 8.92 5.45C6.01 4.88 5.08 4.22 5.08 4C5.08 3.77 6.01 3.11 8.93 2.54C11.88 1.96 15.81 1.64 20.01 1.64C24.2 1.64 28.14 1.96 31.08 2.54C33.98 3.11 34.93 3.76 34.93 4C34.92 4.22 33.98 4.88 31.07 5.45Z" fill="url(#paint_radial_1_250_0)" fill-opacity="1.000000" fill-rule="nonzero"/>
</svg>
