<svg width="45.000000" height="46.000000" viewBox="0 0 45 46" fill="none" xmlns="http://www.w3.org/2000/svg" xmlns:xlink="http://www.w3.org/1999/xlink">
	<desc>
			Created with Pixso.
	</desc>
	<defs/>
	<path id="Vector" d="M25.27 10.15L30.61 13.83L31.16 14.63C31.35 14.41 31.67 13.93 31.67 13.93C31.64 13.74 31.12 11.21 30.96 10.57C29.52 4.4 28.21 4.4 22.01 4.4C15.77 4.4 14.49 4.4 13.05 10.57C12.85 11.4 12.41 13.74 12.34 13.93C12.34 13.93 12.63 14.38 12.85 14.63L13.43 13.74L13.72 13.71C13.78 13.71 20.05 12.84 25.11 10.25L25.27 10.15Z" fill="#2C3E50" fill-opacity="1.000000" fill-rule="nonzero"/>
	<path id="Vector" d="M21.98 33.32C23.8 33.35 27.87 29.83 27.87 29.83L27.87 28.75C25.69 30.25 23.8 31.56 21.98 31.56C21.95 31.56 21.95 31.56 21.91 31.56C20.06 31.56 18.17 30.22 15.93 28.65L15.93 29.74C15.93 29.74 20.06 33.32 21.91 33.32C21.95 33.32 21.98 33.32 21.98 33.32Z" fill="#2C3E50" fill-opacity="1.000000" fill-rule="nonzero"/>
	<path id="Vector" d="M42.84 37.77C41.14 35.53 37.37 33.58 29.46 30.89L29.46 32.36C29.46 36.97 25.66 39.37 21.91 39.37C18.17 39.37 14.36 36.94 14.36 32.36L14.36 30.92C6.59 33.58 2.84 35.53 1.15 37.77C0.89 38.15 0.44 38.82 -0.23 45.7L44.22 45.7C43.54 38.82 43.1 38.15 42.84 37.77Z" fill="#2C3E50" fill-opacity="1.000000" fill-rule="nonzero"/>
	<path id="Vector" d="M36.7 15.4C36.7 14.19 36.31 13.64 35.93 13.07C35.58 12.59 35.19 12.01 35.16 11.18C34.71 3.24 30.78 -0.12 22.01 -0.12C11.61 -0.12 9.24 4.4 8.86 11.15C8.83 12.01 8.41 12.55 8.06 13.03C7.64 13.61 7.23 14.15 7.29 15.5C7.55 19.72 9.02 20.78 9.47 21C9.85 21.19 10.17 21.16 10.33 21.07C10.49 20.97 10.55 20.81 10.59 20.62C10.01 19.85 9.63 18.73 9.5 17.48C9.31 15.31 9.82 13.64 10.91 13C11.07 12.23 11.35 10.7 11.51 10.03C13.18 2.99 15.35 2.67 21.98 2.67C28.63 2.67 30.81 2.99 32.44 10.03C32.57 10.57 32.89 12.2 33.05 13C34.14 13.64 34.65 15.31 34.46 17.51C34.33 18.83 33.91 19.95 33.31 20.71C33.05 21.03 32.73 21.32 32.38 21.61C30.11 23.5 28.6 24.36 24.31 24.49C24.03 24.17 23.61 23.95 23.16 23.95C22.33 23.95 21.63 24.62 21.63 25.48C21.63 26.31 22.3 27.02 23.16 27.02C23.9 27.02 24.54 26.47 24.67 25.77C29.27 25.58 30.97 24.46 33.43 22.44C34.23 21.77 34.84 21.32 35.42 20.52C36.22 19.43 36.47 17.16 36.66 15.5L36.7 15.4Z" fill="#2C3E50" fill-opacity="1.000000" fill-rule="nonzero"/>
</svg>
