<svg width="30.000000" height="30.000000" viewBox="0 0 30 30" fill="none" xmlns="http://www.w3.org/2000/svg" xmlns:xlink="http://www.w3.org/1999/xlink">
	<desc>
			Created with Pixso.
	</desc>
	<defs/>
	<g opacity="0.300000">
		<path id="Vector" d="M16.43 0L16.43 13.55L30 13.55C29.99 9.95 28.56 6.51 26.02 3.96C23.47 1.42 20.02 -0.01 16.43 0ZM13.56 30C17.16 30 20.61 28.57 23.16 26.02C25.7 23.48 27.13 20.03 27.13 16.43L13.56 16.43L13.55 2.87C11.77 2.87 10.01 3.22 8.36 3.91C6.72 4.59 5.22 5.59 3.96 6.85C2.7 8.11 1.71 9.6 1.02 11.25C0.34 12.9 -0.01 14.66 0 16.44C0 18.22 0.35 19.98 1.03 21.63C1.71 23.27 2.71 24.77 3.97 26.03C5.23 27.29 6.73 28.28 8.37 28.97C10.02 29.65 11.78 30 13.56 30Z" fill="#FFFFFF" fill-opacity="1.000000" fill-rule="evenodd"/>
	</g>
</svg>
