<svg width="18.000000" height="23.000000" viewBox="0 0 18 23" fill="none" xmlns="http://www.w3.org/2000/svg" xmlns:xlink="http://www.w3.org/1999/xlink">
	<desc>
			Created with Pixso.
	</desc>
	<defs/>
	<path id="Vector" d="M17.15 20.27L17.15 12.09C17.15 10.62 15.95 9.41 14.47 9.41L13.8 9.41L13.8 5.64C13.8 2.53 11.27 0 8.15 0C5.04 0 2.51 2.53 2.51 5.64L2.51 6.29C2.51 6.74 2.87 7.1 3.31 7.1C3.75 7.1 4.11 6.73 4.11 6.29L4.11 5.64C4.11 3.41 5.93 1.6 8.16 1.6C10.39 1.6 12.2 3.41 12.2 5.64L12.2 9.41L1.83 9.41C0.36 9.41 -0.85 10.61 -0.85 12.09L-0.85 20.27C-0.85 21.74 0.36 22.95 1.83 22.95L14.48 22.95C15.95 22.94 17.15 21.74 17.15 20.27ZM0.76 20.27L0.76 12.09C0.76 11.5 1.25 11.02 1.84 11.02L14.48 11.02C15.07 11.02 15.55 11.5 15.55 12.09L15.55 20.27C15.55 20.86 15.07 21.34 14.48 21.34L1.83 21.34C1.24 21.33 0.76 20.86 0.76 20.27Z" fill="#000000" fill-opacity="1.000000" fill-rule="nonzero"/>
	<path id="Vector" d="M8.16 14.38C7.71 14.38 7.35 14.74 7.35 15.18L7.35 17.26C7.35 17.7 7.71 18.06 8.16 18.06C8.6 18.06 8.96 17.7 8.96 17.26L8.96 15.18C8.96 14.74 8.6 14.38 8.16 14.38Z" fill="#000000" fill-opacity="1.000000" fill-rule="nonzero"/>
</svg>
