<svg width="27.000000" height="37.000000" viewBox="0 0 27 37" fill="none" xmlns="http://www.w3.org/2000/svg" xmlns:xlink="http://www.w3.org/1999/xlink">
	<desc>
			Created with Pixso.
	</desc>
	<defs>
		<clipPath id="clip1_35">
			<rect id="S 1" width="27.000000" height="37.000000" fill="white" fill-opacity="0"/>
		</clipPath>
		<linearGradient id="paint_linear_1_40_0" x1="16.410202" y1="-16.693377" x2="10.470840" y2="20.647226" gradientUnits="userSpaceOnUse">
			<stop stop-color="#0096D9"/>
			<stop offset="1.000000" stop-color="#00C198"/>
		</linearGradient>
		<linearGradient id="paint_linear_1_41_0" x1="9.135366" y1="13.617897" x2="18.658215" y2="32.348038" gradientUnits="userSpaceOnUse">
			<stop stop-color="#002DD9"/>
			<stop offset="1.000000" stop-color="#00B2AB"/>
		</linearGradient>
		<linearGradient id="paint_linear_1_42_0" x1="23.807121" y1="-3.424574" x2="5.775082" y2="38.040092" gradientUnits="userSpaceOnUse">
			<stop stop-color="#3482C0"/>
			<stop offset="0.450000" stop-color="#96BEDE"/>
			<stop offset="0.830000" stop-color="#E1EDF6"/>
			<stop offset="1.000000" stop-color="#FFFFFF"/>
		</linearGradient>
		<linearGradient id="paint_linear_1_44_0" x1="1361.365845" y1="132.275635" x2="418.983887" y2="2629.420410" gradientUnits="userSpaceOnUse">
			<stop stop-color="#3482C0"/>
			<stop offset="0.450000" stop-color="#96BEDE"/>
			<stop offset="0.830000" stop-color="#E1EDF6"/>
			<stop offset="1.000000" stop-color="#FFFFFF"/>
		</linearGradient>
		<linearGradient id="paint_linear_1_45_0" x1="25.673243" y1="3.268082" x2="10.350721" y2="32.587334" gradientUnits="userSpaceOnUse">
			<stop stop-color="#569FA1"/>
			<stop offset="0.360000" stop-color="#97C4C5"/>
			<stop offset="0.800000" stop-color="#E2EEEF"/>
			<stop offset="1.000000" stop-color="#FFFFFF"/>
		</linearGradient>
		<radialGradient id="paint_radial_1_46_0" cx="0.000000" cy="0.000000" r="1.000000" gradientUnits="userSpaceOnUse" gradientTransform="translate(21.5938 32.382) rotate(0) scale(27.8184 27.5367)">
			<stop stop-color="#FFFF00"/>
			<stop offset="1.000000" stop-color="#000000"/>
		</radialGradient>
	</defs>
	<rect id="S 1" width="27.000000" height="37.000000" fill="#FFFFFF" fill-opacity="0"/>
	<g clip-path="url(#clip1_35)">
		<path id="Vector" d="M20.21 0.53C16.79 -0.37 13.16 -0.14 9.89 1.21C6.62 2.55 3.89 4.92 2.13 7.96C0.36 11 -0.34 14.53 0.14 18C0.61 21.47 2.23 24.69 4.74 27.16L22.62 9.46C23.29 8.8 23.77 7.97 24.02 7.07C24.26 6.16 24.26 5.21 24.02 4.31C23.77 3.4 23.29 2.58 22.62 1.92C21.95 1.25 21.12 0.78 20.21 0.53Z" fill="url(#paint_linear_1_40_0)" fill-opacity="1.000000" fill-rule="nonzero"/>
		<path id="Vector" d="M6.78 36.45C10.2 37.37 13.83 37.13 17.11 35.79C20.38 34.44 23.11 32.07 24.87 29.03C26.64 25.99 27.34 22.45 26.87 18.98C26.39 15.5 24.77 12.28 22.26 9.81L4.37 27.53C3.7 28.19 3.22 29.02 2.97 29.92C2.73 30.82 2.73 31.78 2.97 32.68C3.22 33.59 3.7 34.41 4.37 35.07C5.04 35.74 5.87 36.21 6.78 36.45Z" fill="url(#paint_linear_1_41_0)" fill-opacity="1.000000" fill-rule="nonzero"/>
		<path id="Vector" d="M22.26 9.81L4.37 27.53C3.7 28.19 3.22 29.02 2.97 29.92C2.73 30.82 2.73 31.78 2.97 32.68C3.22 33.59 3.7 34.41 4.37 35.07C5.04 35.74 5.87 36.21 6.78 36.45C8.7 36.96 10.69 37.11 12.65 36.9C4.81 29.43 22.26 9.81 22.26 9.81Z" fill="url(#paint_linear_1_42_0)" fill-opacity="1.000000" fill-rule="nonzero"/>
		<path id="Vector" d="M6.46 36.36C3.92 28.58 19.16 12.9 21.86 10.22L4.37 27.53C3.72 28.17 3.25 28.97 3 29.84C2.75 30.71 2.72 31.63 2.93 32.52C3.14 33.4 3.57 34.22 4.19 34.89C4.81 35.56 5.59 36.07 6.46 36.36Z" fill="url(#paint_linear_1_44_0)" fill-opacity="1.000000" fill-rule="nonzero"/>
		<path id="Vector" d="M22.2 9.88C22.22 9.86 22.23 9.84 22.26 9.83L22.2 9.88Z" fill="url(#paint_linear_1_45_0)" fill-opacity="1.000000" fill-rule="nonzero"/>
		<path id="Vector" d="M23.94 7.36L4.72 27.15L22.62 9.46C23.22 8.87 23.67 8.15 23.94 7.36Z" fill="url(#paint_radial_1_46_0)" fill-opacity="1.000000" fill-rule="nonzero"/>
	</g>
</svg>
