<svg width="30.000000" height="31.000000" viewBox="0 0 30 31" fill="none" xmlns="http://www.w3.org/2000/svg" xmlns:xlink="http://www.w3.org/1999/xlink">
	<desc>
			Created with Pixso.
	</desc>
	<defs/>
	<g opacity="0.300000">
		<path id="Forma 1" d="M29.86 12.97C29.81 12.75 29.68 12.56 29.51 12.42C29.33 12.28 29.12 12.2 28.89 12.2C28.22 12.2 27.56 11.99 27.01 11.61C26.45 11.22 26.03 10.68 25.79 10.05C25.54 9.39 25.48 8.67 25.63 7.98C25.78 7.28 26.13 6.65 26.63 6.15C26.79 6 26.88 5.8 26.9 5.58C26.91 5.36 26.85 5.14 26.72 4.97C26.03 4.04 25.23 3.2 24.35 2.45C24.27 2.39 24.17 2.33 24.07 2.3C23.97 2.27 23.87 2.25 23.76 2.26C23.65 2.27 23.55 2.3 23.46 2.35C23.36 2.4 23.28 2.46 23.21 2.54C22.75 3.06 22.15 3.42 21.48 3.58C20.81 3.74 20.11 3.68 19.47 3.43C18.83 3.13 18.29 2.64 17.93 2.03C17.57 1.42 17.4 0.72 17.45 0.01C17.47 -0.2 17.4 -0.42 17.26 -0.59C17.13 -0.76 16.93 -0.87 16.72 -0.9C15.6 -1.03 14.47 -1.04 13.35 -0.92C13.13 -0.89 12.94 -0.78 12.8 -0.61C12.66 -0.44 12.59 -0.23 12.6 -0.02C12.63 0.68 12.46 1.38 12.09 1.98C11.72 2.57 11.19 3.05 10.55 3.34C9.91 3.59 9.22 3.63 8.56 3.48C7.89 3.32 7.29 2.96 6.84 2.45C6.7 2.29 6.5 2.2 6.29 2.18C6.08 2.16 5.87 2.23 5.71 2.36C4.81 3.1 4 3.94 3.29 4.87C3.15 5.04 3.09 5.26 3.11 5.48C3.12 5.7 3.22 5.91 3.38 6.06C3.89 6.56 4.24 7.2 4.39 7.9C4.54 8.6 4.48 9.32 4.21 9.99C3.95 10.63 3.5 11.18 2.91 11.55C2.33 11.93 1.65 12.13 0.96 12.11C0.74 12.1 0.52 12.18 0.36 12.33C0.2 12.47 0.1 12.68 0.09 12.89C-0.04 14.08 -0.04 15.28 0.09 16.47C0.14 16.69 0.27 16.89 0.45 17.03C0.63 17.16 0.85 17.24 1.07 17.24C1.75 17.24 2.4 17.44 2.95 17.83C3.5 18.22 3.92 18.76 4.15 19.39C4.41 20.05 4.47 20.77 4.32 21.46C4.17 22.16 3.82 22.79 3.32 23.29C3.16 23.44 3.06 23.64 3.05 23.86C3.03 24.08 3.09 24.3 3.22 24.47C3.92 25.4 4.71 26.24 5.59 26.99C5.76 27.12 5.97 27.19 6.18 27.17C6.39 27.15 6.59 27.06 6.73 26.9C7.19 26.38 7.79 26.02 8.46 25.86C9.13 25.7 9.83 25.75 10.47 26.01C11.11 26.31 11.65 26.79 12.01 27.4C12.37 28.01 12.54 28.72 12.49 29.43C12.48 29.64 12.55 29.86 12.69 30.03C12.82 30.2 13.02 30.31 13.23 30.34C13.8 30.41 14.38 30.45 14.95 30.45C15.51 30.45 16.06 30.42 16.6 30.36C16.82 30.32 17.01 30.21 17.15 30.04C17.29 29.87 17.36 29.66 17.35 29.44C17.32 28.74 17.5 28.05 17.86 27.45C18.23 26.85 18.76 26.38 19.4 26.09C20.04 25.84 20.73 25.8 21.39 25.96C22.06 26.12 22.66 26.48 23.11 26.99C23.25 27.15 23.44 27.24 23.66 27.26C23.87 27.28 24.08 27.21 24.24 27.08C25.14 26.34 25.96 25.49 26.66 24.56C26.8 24.39 26.86 24.17 26.84 23.95C26.83 23.73 26.73 23.53 26.57 23.38C26.06 22.88 25.71 22.24 25.56 21.54C25.41 20.84 25.47 20.12 25.73 19.45C25.97 18.83 26.39 18.3 26.94 17.91C27.48 17.53 28.13 17.32 28.8 17.31L28.98 17.33C29.2 17.33 29.41 17.25 29.57 17.11C29.74 16.97 29.84 16.76 29.86 16.55C29.99 15.36 29.99 14.16 29.86 12.97ZM15 19.99C13.95 20.04 12.92 19.78 12.02 19.23C11.13 18.69 10.42 17.89 9.98 16.93C9.55 15.98 9.41 14.92 9.58 13.89C9.76 12.85 10.23 11.9 10.96 11.14C11.68 10.38 12.61 9.86 13.63 9.63C14.66 9.41 15.72 9.5 16.7 9.89C17.67 10.28 18.5 10.95 19.09 11.81C19.68 12.68 19.99 13.7 19.99 14.75C20.02 16.11 19.51 17.42 18.58 18.4C17.64 19.39 16.35 19.96 15 19.99Z" fill="#FFFFFF" fill-opacity="1.000000" fill-rule="evenodd"/>
	</g>
</svg>
