<svg width="32.000000" height="32.000000" viewBox="0 0 32 32" fill="none" xmlns="http://www.w3.org/2000/svg" xmlns:xlink="http://www.w3.org/1999/xlink">
	<desc>
			Created with Pixso.
	</desc>
	<defs/>
	<g opacity="0.300000">
		<path id="Vector" d="M27.16 25L28.53 25C30.44 25 32 26.57 32 28.5L32 31.04C32 31.57 31.57 32 31.05 32L27 32C27.1 31.7 27.16 31.38 27.16 31.04L27.16 25Z" fill="#FFFFFF" fill-opacity="1.000000" fill-rule="nonzero"/>
		<path id="Vector" d="M20.16 20L21.53 20C23.44 20 25 21.55 25 23.47L25 31.05C25 31.57 24.57 32 24.05 32L20 32C20.1 31.7 20.16 31.38 20.16 31.05L20.16 20Z" fill="#FFFFFF" fill-opacity="1.000000" fill-rule="nonzero"/>
		<path id="Vector" d="M0.18 9.41L6.75 0.37C6.93 0.14 7.2 0 7.5 0C7.79 0 8.06 0.14 8.24 0.37L14.81 9.41C15.02 9.7 15.05 10.08 14.9 10.39C14.74 10.71 14.42 10.91 14.07 10.91L11.71 10.91L11.71 31.06C11.71 31.58 11.29 32 10.78 32L4.21 32C3.7 32 3.28 31.58 3.28 31.06L3.28 10.91L0.92 10.91C0.57 10.91 0.25 10.71 0.09 10.39C-0.06 10.08 -0.03 9.7 0.18 9.41Z" fill="#FFFFFF" fill-opacity="1.000000" fill-rule="nonzero"/>
		<path id="Vector" d="M14.16 15L15.53 15C17.44 15 19 16.55 19 18.46L19 31.05C19 31.57 18.57 32 18.05 32L14 32C14.1 31.7 14.16 31.38 14.16 31.05L14.16 15Z" fill="#FFFFFF" fill-opacity="1.000000" fill-rule="nonzero"/>
	</g>
</svg>
